<svg width="1728" height="349" viewBox="0 0 1728 349" fill="none" xmlns="http://www.w3.org/2000/svg">
<path d="M405.007 346.067L405.055 346.564L405.007 346.067ZM1128.88 12.1717L1128.97 12.6642L1128.88 12.1717ZM-48.0058 120.936C-47.8504 121.164 -47.5393 121.223 -47.3111 121.068C-47.0828 120.913 -47.0238 120.602 -47.1792 120.373L-48.0058 120.936ZM-38.3656 132.888C-38.528 132.664 -38.8407 132.615 -39.0641 132.777C-39.2874 132.94 -39.3368 133.253 -39.1744 133.476L-38.3656 132.888ZM-33.0816 141.688C-32.9149 141.908 -32.6014 141.951 -32.3812 141.785C-32.161 141.618 -32.1175 141.305 -32.2842 141.084L-33.0816 141.688ZM-22.8522 153.198C-23.0248 152.982 -23.3394 152.948 -23.555 153.12C-23.7705 153.293 -23.8054 153.607 -23.6328 153.823L-22.8522 153.198ZM-17.1883 161.727C-17.0119 161.939 -16.6967 161.968 -16.4842 161.792C-16.2717 161.616 -16.2425 161.3 -16.4189 161.088L-17.1883 161.727ZM-6.45275 172.776C-6.63467 172.568 -6.95056 172.547 -7.15831 172.729C-7.36606 172.911 -7.387 173.227 -7.20508 173.434L-6.45275 172.776ZM-0.435587 181.031C-0.250096 181.236 0.0661087 181.251 0.270676 181.066C0.475242 180.88 0.490706 180.564 0.305215 180.36L-0.435587 181.031ZM10.7495 191.58C10.5587 191.38 10.2422 191.373 10.0425 191.563C9.8429 191.754 9.83572 192.071 10.0265 192.27L10.7495 191.58ZM17.1318 199.577C17.326 199.773 17.6426 199.775 17.8389 199.581C18.0351 199.387 18.0368 199.07 17.8426 198.874L17.1318 199.577ZM28.7551 209.613C28.5558 209.422 28.2393 209.429 28.0482 209.628C27.8571 209.828 27.8639 210.144 28.0632 210.335L28.7551 209.613ZM35.5145 217.349C35.7173 217.537 36.0336 217.524 36.2211 217.322C36.4085 217.119 36.3961 216.803 36.1934 216.615L35.5145 217.349ZM47.5735 226.855C47.3658 226.673 47.0499 226.694 46.868 226.902C46.6861 227.109 46.7071 227.425 46.9148 227.607L47.5735 226.855ZM54.6874 234.286C54.8985 234.464 55.214 234.437 55.392 234.226C55.57 234.015 55.5432 233.7 55.3321 233.522L54.6874 234.286ZM67.1611 243.219C66.9451 243.047 66.6306 243.083 66.4585 243.299C66.2865 243.515 66.3221 243.829 66.5381 244.001L67.1611 243.219ZM74.5742 250.279C74.7935 250.447 75.1073 250.406 75.2752 250.187C75.4432 249.967 75.4016 249.653 75.1824 249.486L74.5742 250.279ZM87.4681 258.619C87.2441 258.457 86.9316 258.508 86.7701 258.732C86.6086 258.956 86.6592 259.268 86.8832 259.43L87.4681 258.619ZM95.2662 265.35C95.4934 265.507 95.8048 265.45 95.9619 265.223C96.1189 264.996 96.0621 264.685 95.835 264.528L95.2662 265.35ZM108.535 273.032C108.304 272.882 107.994 272.948 107.844 273.18C107.694 273.412 107.76 273.721 107.991 273.871L108.535 273.032ZM116.608 279.333C116.843 279.478 117.151 279.406 117.297 279.171C117.442 278.936 117.37 278.628 117.135 278.483L116.608 279.333ZM130.273 286.345C130.034 286.207 129.728 286.289 129.59 286.528C129.452 286.767 129.534 287.073 129.773 287.211L130.273 286.345ZM138.69 292.236C138.932 292.369 139.236 292.281 139.369 292.039C139.502 291.797 139.414 291.493 139.172 291.36L138.69 292.236ZM152.684 298.51C152.438 298.385 152.137 298.483 152.011 298.729C151.886 298.975 151.984 299.276 152.23 299.401L152.684 298.51ZM161.399 303.942C161.647 304.062 161.946 303.958 162.066 303.709C162.186 303.46 162.081 303.161 161.833 303.041L161.399 303.942ZM175.747 309.467C175.494 309.355 175.199 309.469 175.088 309.722C174.976 309.974 175.09 310.27 175.343 310.381L175.747 309.467ZM184.704 314.395C184.959 314.501 185.252 314.38 185.358 314.125C185.464 313.87 185.343 313.578 185.088 313.472L184.704 314.395ZM199.316 319.108C199.057 319.011 198.769 319.141 198.671 319.4C198.574 319.658 198.705 319.947 198.963 320.044L199.316 319.108ZM208.591 323.548C208.852 323.64 209.137 323.503 209.228 323.242C209.32 322.982 209.183 322.696 208.922 322.605L208.591 323.548ZM223.421 327.42C223.157 327.338 222.877 327.484 222.794 327.748C222.712 328.011 222.858 328.292 223.122 328.375L223.421 327.42ZM232.93 331.324C233.195 331.401 233.472 331.248 233.548 330.982C233.625 330.717 233.472 330.44 233.207 330.363L232.93 331.324ZM247.989 334.351C247.721 334.283 247.45 334.446 247.382 334.714C247.315 334.981 247.478 335.253 247.745 335.32L247.989 334.351ZM257.655 337.69C257.924 337.751 258.192 337.583 258.253 337.313C258.314 337.044 258.145 336.776 257.876 336.715L257.655 337.69ZM272.878 339.85C272.607 339.798 272.345 339.976 272.293 340.247C272.242 340.519 272.42 340.781 272.691 340.832L272.878 339.85ZM282.727 342.63C282.999 342.676 283.257 342.492 283.302 342.22C283.348 341.948 283.164 341.69 282.892 341.644L282.727 342.63ZM298.024 343.911C297.75 343.875 297.499 344.068 297.463 344.341C297.426 344.615 297.619 344.866 297.893 344.903L298.024 343.911ZM308.059 346.131C308.333 346.161 308.58 345.962 308.61 345.688C308.64 345.413 308.442 345.167 308.167 345.137L308.059 346.131ZM323.376 346.54C323.1 346.519 322.86 346.725 322.84 347.001C322.819 347.276 323.025 347.516 323.301 347.537L323.376 346.54ZM333.561 348.194C333.837 348.209 334.072 347.997 334.087 347.721C334.101 347.445 333.89 347.21 333.614 347.195L333.561 348.194ZM348.847 347.748C348.571 347.743 348.343 347.962 348.337 348.238C348.332 348.514 348.551 348.743 348.827 348.748L348.847 347.748ZM359.1 348.84C359.376 348.84 359.6 348.616 359.599 348.339C359.599 348.063 359.374 347.84 359.098 347.84L359.1 348.84ZM374.354 347.567C374.078 347.576 373.862 347.807 373.871 348.083C373.88 348.359 374.112 348.575 374.388 348.566L374.354 347.567ZM384.621 348.111C384.897 348.096 385.108 347.86 385.093 347.585C385.077 347.309 384.842 347.098 384.566 347.113L384.621 348.111ZM399.818 346.038C399.543 346.061 399.339 346.303 399.362 346.579C399.386 346.854 399.628 347.058 399.903 347.034L399.818 346.038ZM410.16 346.052C410.434 346.023 410.634 345.777 410.605 345.503C410.576 345.228 410.33 345.029 410.056 345.057L410.16 346.052ZM425.112 343.302C424.838 343.337 424.645 343.588 424.68 343.861C424.715 344.135 424.966 344.329 425.24 344.293L425.112 343.302ZM435.136 342.935C435.409 342.895 435.598 342.642 435.559 342.368C435.519 342.095 435.265 341.906 434.992 341.946L435.136 342.935ZM450.03 339.561C449.758 339.608 449.575 339.866 449.622 340.139C449.668 340.411 449.927 340.593 450.199 340.547L450.03 339.561ZM460.047 338.77C460.318 338.719 460.497 338.457 460.445 338.186C460.394 337.914 460.132 337.736 459.861 337.787L460.047 338.77ZM474.75 334.767C474.48 334.826 474.309 335.092 474.368 335.362C474.426 335.632 474.692 335.803 474.962 335.745L474.75 334.767ZM484.759 333.533C485.028 333.47 485.194 333.2 485.131 332.932C485.068 332.663 484.799 332.496 484.53 332.559L484.759 333.533ZM499.232 328.895C498.965 328.966 498.806 329.239 498.876 329.506C498.946 329.773 499.22 329.933 499.487 329.862L499.232 328.895ZM509.198 327.21C509.463 327.135 509.618 326.859 509.543 326.593C509.468 326.328 509.191 326.173 508.925 326.248L509.198 327.21ZM523.428 321.936C523.165 322.018 523.018 322.299 523.1 322.562C523.182 322.826 523.463 322.973 523.726 322.891L523.428 321.936ZM533.32 319.802C533.582 319.715 533.724 319.432 533.637 319.17C533.55 318.908 533.267 318.766 533.005 318.853L533.32 319.802ZM547.292 313.899C547.032 313.993 546.898 314.28 546.992 314.54C547.086 314.799 547.372 314.934 547.632 314.84L547.292 313.899ZM557.083 311.326C557.341 311.228 557.47 310.939 557.372 310.681C557.273 310.423 556.984 310.294 556.726 310.392L557.083 311.326ZM570.78 304.816C570.525 304.921 570.403 305.213 570.508 305.469C570.613 305.724 570.906 305.846 571.161 305.741L570.78 304.816ZM580.451 301.822C580.705 301.712 580.821 301.418 580.712 301.165C580.602 300.911 580.308 300.794 580.055 300.904L580.451 301.822ZM593.861 294.737C593.611 294.852 593.501 295.149 593.617 295.4C593.733 295.651 594.03 295.76 594.281 295.645L593.861 294.737ZM603.399 291.347C603.648 291.227 603.753 290.929 603.633 290.68C603.513 290.431 603.214 290.326 602.966 290.446L603.399 291.347ZM616.518 283.731C616.272 283.857 616.175 284.158 616.3 284.404C616.425 284.65 616.727 284.748 616.973 284.622L616.518 283.731ZM625.917 279.979C626.161 279.85 626.255 279.547 626.126 279.303C625.997 279.059 625.694 278.966 625.45 279.095L625.917 279.979ZM638.75 271.886C638.508 272.02 638.421 272.324 638.556 272.566C638.69 272.807 638.994 272.894 639.235 272.76L638.75 271.886ZM648.011 267.808C648.251 267.671 648.334 267.366 648.197 267.126C648.059 266.886 647.754 266.804 647.514 266.941L648.011 267.808ZM660.573 259.298C660.336 259.439 660.258 259.746 660.4 259.983C660.541 260.221 660.848 260.298 661.086 260.156L660.573 259.298ZM669.705 254.938C669.941 254.794 670.014 254.486 669.87 254.251C669.726 254.015 669.418 253.941 669.183 254.086L669.705 254.938ZM682.02 246.074C681.787 246.222 681.718 246.531 681.866 246.765C682.014 246.998 682.323 247.067 682.556 246.919L682.02 246.074ZM691.041 241.476C691.273 241.326 691.339 241.016 691.188 240.784C691.038 240.553 690.729 240.486 690.497 240.637L691.041 241.476ZM703.139 232.328C702.91 232.481 702.847 232.791 703 233.021C703.154 233.251 703.464 233.313 703.694 233.16L703.139 232.328ZM712.067 227.538C712.296 227.383 712.356 227.072 712.201 226.843C712.046 226.615 711.735 226.555 711.506 226.71L712.067 227.538ZM723.992 218.172C723.765 218.329 723.708 218.64 723.865 218.867C724.022 219.095 724.333 219.152 724.56 218.995L723.992 218.172ZM732.845 213.241C733.072 213.083 733.127 212.771 732.969 212.545C732.811 212.319 732.499 212.263 732.273 212.421L732.845 213.241ZM744.647 203.722C744.422 203.881 744.368 204.193 744.528 204.419C744.687 204.644 744.999 204.698 745.225 204.538L744.647 203.722ZM753.45 198.701C753.674 198.541 753.727 198.229 753.567 198.004C753.407 197.779 753.095 197.726 752.87 197.886L753.45 198.701ZM765.181 189.092C764.957 189.253 764.905 189.565 765.066 189.79C765.227 190.014 765.539 190.066 765.764 189.905L765.181 189.092ZM773.957 184.031C774.182 183.87 774.233 183.558 774.072 183.333C773.911 183.109 773.599 183.058 773.374 183.219L773.957 184.031ZM785.673 174.396C785.449 174.557 785.397 174.869 785.558 175.094C785.719 175.318 786.031 175.37 786.256 175.209L785.673 174.396ZM794.449 169.344C794.674 169.183 794.726 168.871 794.565 168.646C794.404 168.421 794.092 168.369 793.868 168.53L794.449 169.344ZM806.198 159.748C805.972 159.908 805.919 160.22 806.079 160.445C806.239 160.671 806.551 160.724 806.776 160.564L806.198 159.748ZM815.004 154.749C815.229 154.59 815.284 154.278 815.125 154.052C814.966 153.827 814.654 153.773 814.428 153.931L815.004 154.749ZM826.835 145.257C826.608 145.414 826.551 145.726 826.709 145.953C826.866 146.179 827.178 146.236 827.405 146.078L826.835 145.257ZM835.697 140.357C835.925 140.2 835.983 139.889 835.827 139.661C835.671 139.434 835.359 139.376 835.132 139.532L835.697 140.357ZM847.656 131.029C847.427 131.183 847.366 131.494 847.52 131.723C847.674 131.952 847.985 132.013 848.214 131.859L847.656 131.029ZM856.599 126.273C856.83 126.12 856.893 125.81 856.741 125.58C856.589 125.349 856.278 125.286 856.048 125.438L856.599 126.273ZM868.728 117.171C868.495 117.321 868.428 117.63 868.577 117.862C868.727 118.095 869.036 118.162 869.268 118.013L868.728 117.171ZM877.771 112.601C878.005 112.454 878.075 112.145 877.928 111.912C877.78 111.678 877.472 111.608 877.238 111.755L877.771 112.601ZM890.104 103.785C889.868 103.929 889.793 104.237 889.937 104.473C890.08 104.708 890.388 104.783 890.624 104.64L890.104 103.785ZM899.263 99.4433C899.5 99.3023 899.579 98.9955 899.438 98.7581C899.296 98.5206 898.99 98.4425 898.752 98.5835L899.263 99.4433ZM911.827 90.969C911.588 91.1059 911.504 91.4112 911.641 91.6511C911.778 91.8909 912.083 91.9744 912.323 91.8376L911.827 90.969ZM921.113 86.8935C921.355 86.7597 921.442 86.4553 921.308 86.2138C921.174 85.9723 920.87 85.885 920.628 86.0189L921.113 86.8935ZM933.929 78.8135C933.685 78.9426 933.592 79.2452 933.721 79.4893C933.85 79.7334 934.153 79.8266 934.397 79.6974L933.929 78.8135ZM943.346 75.04C943.592 74.9142 943.689 74.613 943.563 74.3671C943.437 74.1213 943.136 74.024 942.89 74.1498L943.346 75.04ZM956.425 67.4014C956.176 67.522 956.073 67.8211 956.193 68.0695C956.314 68.318 956.613 68.4216 956.861 68.301L956.425 67.4014ZM965.97 63.9612C966.221 63.8443 966.329 63.5467 966.212 63.2965C966.095 63.0464 965.797 62.9384 965.547 63.0553L965.97 63.9612ZM979.317 56.8042C979.064 56.9155 978.95 57.2106 979.061 57.4633C979.172 57.7161 979.467 57.8307 979.72 57.7194L979.317 56.8042ZM988.983 53.7235C989.238 53.6161 989.357 53.3228 989.25 53.0684C989.142 52.814 988.849 52.6949 988.594 52.8023L988.983 53.7235ZM1002.6 47.0802C1002.34 47.1817 1002.21 47.4721 1002.31 47.729C1002.42 47.9858 1002.71 48.1117 1002.96 48.0102L1002.6 47.0802ZM1012.37 44.3795C1012.63 44.2821 1012.76 43.9937 1012.66 43.7353C1012.56 43.4769 1012.27 43.3464 1012.02 43.4438L1012.37 44.3795ZM1026.24 38.2728C1025.98 38.364 1025.84 38.6493 1025.93 38.9099C1026.03 39.1706 1026.31 39.3079 1026.57 39.2167L1026.24 38.2728ZM1036.1 35.9663C1036.36 35.8793 1036.5 35.5962 1036.42 35.3342C1036.33 35.0721 1036.05 34.9303 1035.78 35.0174L1036.1 35.9663ZM1050.23 30.4099C1049.96 30.4906 1049.81 30.7702 1049.9 31.0342C1049.98 31.2983 1050.26 31.4469 1050.52 31.3661L1050.23 30.4099ZM1060.15 28.5052C1060.41 28.4287 1060.56 28.1515 1060.49 27.8862C1060.41 27.6209 1060.13 27.4679 1059.87 27.5444L1060.15 28.5052ZM1074.52 23.5039C1074.26 23.5741 1074.1 23.8475 1074.17 24.1146C1074.24 24.3816 1074.51 24.5412 1074.78 24.471L1074.52 23.5039ZM1084.47 22.0022C1084.74 21.9362 1084.91 21.6653 1084.84 21.3971C1084.77 21.129 1084.5 20.9652 1084.23 21.0312L1084.47 22.0022ZM1099.08 17.5575C1098.81 17.6172 1098.64 17.8842 1098.7 18.1538C1098.76 18.4234 1099.03 18.5935 1099.3 18.5338L1099.08 17.5575ZM1109.05 16.4497C1109.32 16.3941 1109.5 16.1297 1109.44 15.8592C1109.39 15.5887 1109.12 15.4146 1108.85 15.4703L1109.05 16.4497ZM1123.76 12.579C1123.48 12.6285 1123.3 12.8889 1123.35 13.1606C1123.4 13.4323 1123.66 13.6123 1123.93 13.5628L1123.76 12.579ZM1133.93 11.816C1134.21 11.7705 1134.39 11.5128 1134.34 11.2404C1134.3 10.9681 1134.04 10.7842 1133.77 10.8297L1133.93 11.816ZM1148.66 8.50063C1148.38 8.54045 1148.19 8.79424 1148.23 9.0675C1148.27 9.34076 1148.53 9.53 1148.8 9.49018L1148.66 8.50063ZM1158.74 8.11165C1159.02 8.07563 1159.21 7.82448 1159.18 7.5507C1159.14 7.27691 1158.89 7.08417 1158.61 7.1202L1158.74 8.11165ZM1173.57 5.30883C1173.29 5.33922 1173.1 5.58636 1173.13 5.86083C1173.16 6.13529 1173.4 6.33315 1173.68 6.30275L1173.57 5.30883ZM1183.67 5.26467C1183.94 5.23799 1184.15 4.99355 1184.12 4.71869C1184.09 4.44384 1183.85 4.24266 1183.57 4.26935L1183.67 5.26467ZM1198.57 2.96487C1198.3 2.98605 1198.09 3.22642 1198.11 3.50175C1198.13 3.77708 1198.37 3.9831 1198.65 3.96192L1198.57 2.96487ZM1208.68 3.25706C1208.95 3.23951 1209.16 3.00188 1209.14 2.72629C1209.13 2.45071 1208.89 2.24153 1208.61 2.25908L1208.68 3.25706ZM1223.64 1.44885C1223.36 1.46104 1223.15 1.69457 1223.16 1.97044C1223.17 2.24632 1223.41 2.46007 1223.68 2.44787L1223.64 1.44885ZM1233.73 2.06813C1234.01 2.05946 1234.23 1.82869 1234.22 1.55269C1234.21 1.27668 1233.98 1.05995 1233.7 1.06862L1233.73 2.06813ZM1248.75 0.738558C1248.48 0.742019 1248.26 0.968664 1248.26 1.24478C1248.26 1.52091 1248.49 1.74194 1248.77 1.73848L1248.75 0.738558ZM1258.82 1.67496C1259.09 1.67492 1259.32 1.45103 1259.32 1.17489C1259.32 0.898749 1259.09 0.674921 1258.82 0.674958L1258.82 1.67496ZM1273.88 0.810837C1273.6 0.805834 1273.37 1.0256 1273.37 1.3017C1273.36 1.57779 1273.58 1.80567 1273.86 1.81067L1273.88 0.810837ZM1283.9 2.05295C1284.18 2.06126 1284.41 1.84424 1284.42 1.56822C1284.42 1.29221 1284.21 1.06171 1283.93 1.0534L1283.9 2.05295ZM1298.99 1.64022C1298.71 1.62704 1298.48 1.83996 1298.46 2.11579C1298.45 2.39161 1298.66 2.6259 1298.94 2.63908L1298.99 1.64022ZM1308.96 3.17621C1309.24 3.19258 1309.47 2.98239 1309.49 2.70673C1309.51 2.43108 1309.3 2.19434 1309.02 2.17797L1308.96 3.17621ZM1324.06 3.20026C1323.78 3.17919 1323.54 3.38532 1323.52 3.66066C1323.5 3.936 1323.71 4.17628 1323.98 4.19734L1324.06 3.20026ZM1333.98 5.01797C1334.25 5.04211 1334.49 4.83867 1334.52 4.56358C1334.54 4.2885 1334.34 4.04593 1334.06 4.0218L1333.98 5.01797ZM1349.08 5.46382C1348.8 5.43517 1348.56 5.63459 1348.53 5.90924C1348.5 6.18389 1348.7 6.42977 1348.97 6.45842L1349.08 5.46382ZM1358.92 7.55086C1359.2 7.58246 1359.45 7.38569 1359.48 7.11136C1359.51 6.83703 1359.31 6.58903 1359.04 6.55743L1358.92 7.55086ZM1374.02 8.40341C1373.74 8.36748 1373.49 8.56029 1373.46 8.83409C1373.42 9.10788 1373.61 9.35897 1373.89 9.39491L1374.02 8.40341ZM1383.81 10.7503C1384.09 10.7891 1384.34 10.5989 1384.38 10.3254C1384.42 10.052 1384.23 9.79897 1383.95 9.76021L1383.81 10.7503ZM1398.87 11.9913C1398.6 11.9484 1398.34 12.1348 1398.3 12.4075C1398.25 12.6803 1398.44 12.9363 1398.71 12.9792L1398.87 11.9913ZM1408.62 14.5894C1408.89 14.635 1409.15 14.4512 1409.2 14.1789C1409.24 13.9065 1409.06 13.6488 1408.79 13.6031L1408.62 14.5894ZM1423.61 16.1998C1423.34 16.1502 1423.08 16.3302 1423.03 16.6018C1422.98 16.8735 1423.16 17.1339 1423.43 17.1836L1423.61 16.1998ZM1433.32 19.0396C1433.6 19.0918 1433.86 18.9144 1433.91 18.6432C1433.96 18.372 1433.78 18.1099 1433.51 18.0577L1433.32 19.0396ZM1448.27 21.0085C1448 20.9524 1447.74 21.1262 1447.68 21.3966C1447.62 21.667 1447.8 21.9316 1448.07 21.9877L1448.27 21.0085ZM1457.91 24.0737C1458.18 24.1323 1458.44 23.9609 1458.5 23.6911C1458.56 23.4212 1458.39 23.155 1458.12 23.0965L1457.91 24.0737ZM1472.82 26.3897C1472.55 26.3275 1472.28 26.4952 1472.22 26.7643C1472.16 27.0333 1472.33 27.3018 1472.6 27.364L1472.82 26.3897ZM1482.35 29.6643C1482.62 29.7289 1482.89 29.5635 1482.96 29.295C1483.02 29.0265 1482.86 28.7566 1482.59 28.692L1482.35 29.6643ZM1497.23 32.3135C1496.97 32.2455 1496.69 32.4073 1496.63 32.675C1496.56 32.9426 1496.72 33.2147 1496.99 33.2827L1497.23 32.3135ZM1506.67 35.7875C1506.94 35.8578 1507.21 35.6983 1507.28 35.4312C1507.35 35.1642 1507.19 34.8907 1506.92 34.8204L1506.67 35.7875ZM1521.49 38.7522C1521.23 38.6786 1520.95 38.8347 1520.88 39.1009C1520.8 39.367 1520.96 39.6424 1521.23 39.7161L1521.49 38.7522ZM1530.9 42.434C1531.17 42.5098 1531.44 42.3559 1531.52 42.0904C1531.59 41.8248 1531.44 41.5481 1531.17 41.4724L1530.9 42.434ZM1545.61 45.6855C1545.35 45.6066 1545.07 45.7571 1544.99 46.0217C1544.91 46.2863 1545.06 46.5648 1545.33 46.6438L1545.61 45.6855ZM1554.97 49.5604C1555.23 49.6414 1555.51 49.493 1555.59 49.229C1555.67 48.965 1555.53 48.6853 1555.26 48.6043L1554.97 49.5604ZM1569.64 53.1063C1569.38 53.0223 1569.1 53.1675 1569.01 53.4305C1568.93 53.6936 1569.08 53.9749 1569.34 54.0589L1569.64 53.1063ZM1578.85 57.1354C1579.11 57.2213 1579.4 57.0783 1579.48 56.8158C1579.57 56.5534 1579.43 56.271 1579.16 56.1851L1578.85 57.1354ZM1593.48 60.9613C1593.22 60.8725 1592.94 61.0125 1592.85 61.274C1592.76 61.5355 1592.9 61.8194 1593.16 61.9082L1593.48 60.9613ZM1602.66 65.1718C1602.92 65.2624 1603.21 65.1245 1603.3 64.8636C1603.39 64.6028 1603.25 64.3178 1602.99 64.2272L1602.66 65.1718ZM1617.18 69.2393C1616.92 69.146 1616.63 69.2811 1616.54 69.541C1616.45 69.8009 1616.58 70.0872 1616.84 70.1805L1617.18 69.2393ZM1626.29 73.6094C1626.55 73.7044 1626.84 73.5713 1626.94 73.312C1627.03 73.0527 1626.9 72.7655 1626.64 72.6705L1626.29 73.6094ZM1640.77 77.9295C1640.51 77.8319 1640.23 77.9623 1640.13 78.2206C1640.03 78.479 1640.16 78.7675 1640.42 78.865L1640.77 77.9295ZM1649.79 82.4356C1650.04 82.5348 1650.33 82.4062 1650.43 82.1485C1650.53 81.8908 1650.4 81.6015 1650.15 81.5023L1649.79 82.4356ZM1664.17 86.9718C1663.92 86.8703 1663.63 86.9963 1663.53 87.2531C1663.42 87.51 1663.55 87.8004 1663.81 87.9018L1664.17 86.9718ZM1673.13 91.6164C1673.39 91.7193 1673.68 91.595 1673.78 91.3388C1673.89 91.0825 1673.76 90.7914 1673.51 90.6885L1673.13 91.6164ZM1687.47 96.3594C1687.21 96.2545 1686.92 96.3765 1686.81 96.6319C1686.71 96.8873 1686.83 97.1795 1687.09 97.2844L1687.47 96.3594ZM1696.4 101.137C1696.65 101.243 1696.94 101.123 1697.05 100.868C1697.16 100.613 1697.04 100.32 1696.78 100.214L1696.4 101.137ZM1710.67 106.054C1710.41 105.946 1710.12 106.065 1710.01 106.319C1709.9 106.573 1710.02 106.867 1710.28 106.975L1710.67 106.054ZM1719.51 110.915C1719.77 111.024 1720.06 110.906 1720.17 110.652C1720.28 110.399 1720.16 110.105 1719.91 109.996L1719.51 110.915ZM1733.74 115.966C1733.49 115.856 1733.2 115.972 1733.09 116.226C1732.98 116.479 1733.09 116.773 1733.35 116.883L1733.74 115.966ZM-50.8006 116.783C-49.914 118.116 -48.9824 119.502 -48.0058 120.936L-47.1792 120.373C-48.1537 118.942 -49.0833 117.56 -49.9677 116.229L-50.8006 116.783ZM-39.1744 133.476C-37.2553 136.115 -35.2244 138.856 -33.0816 141.688L-32.2842 141.084C-34.4231 138.258 -36.4502 135.522 -38.3656 132.888L-39.1744 133.476ZM-23.6328 153.823C-21.5644 156.406 -19.4163 159.043 -17.1883 161.727L-16.4189 161.088C-18.643 158.409 -20.7874 155.777 -22.8522 153.198L-23.6328 153.823ZM-7.20508 173.434C-5.0123 175.939 -2.7558 178.472 -0.435587 181.031L0.305215 180.36C-2.01105 177.805 -4.2637 175.276 -6.45275 172.776L-7.20508 173.434ZM10.0265 192.27C12.3405 194.692 14.7089 197.129 17.1318 199.577L17.8426 198.874C15.4239 196.43 13.0595 193.997 10.7495 191.58L10.0265 192.27ZM28.0632 210.335C30.4985 212.669 32.9823 215.008 35.5145 217.349L36.1934 216.615C33.6656 214.278 31.1862 211.943 28.7551 209.613L28.0632 210.335ZM46.9148 227.607C49.4617 229.837 52.0526 232.064 54.6874 234.286L55.3321 233.522C52.7021 231.304 50.1158 229.08 47.5735 226.855L46.9148 227.607ZM66.5381 244.001C69.1767 246.103 71.8554 248.197 74.5742 250.279L75.1824 249.486C72.4686 247.407 69.7949 245.317 67.1611 243.219L66.5381 244.001ZM86.8832 259.43C89.6397 261.417 92.434 263.392 95.2662 265.35L95.835 264.528C93.0082 262.573 90.2193 260.603 87.4681 258.619L86.8832 259.43ZM107.991 273.871C110.829 275.71 113.701 277.531 116.608 279.333L117.135 278.483C114.233 276.685 111.367 274.867 108.535 273.032L107.991 273.871ZM129.773 287.211C132.712 288.908 135.684 290.584 138.69 292.236L139.172 291.36C136.172 289.711 133.206 288.039 130.273 286.345L129.773 287.211ZM152.23 299.401C155.255 300.94 158.311 302.454 161.399 303.942L161.833 303.041C158.751 301.557 155.702 300.046 152.684 298.51L152.23 299.401ZM175.343 310.381C178.433 311.747 181.554 313.085 184.704 314.395L185.088 313.472C181.945 312.165 178.831 310.829 175.747 309.467L175.343 310.381ZM198.963 320.044C202.143 321.242 205.353 322.411 208.591 323.548L208.922 322.605C205.691 321.47 202.489 320.304 199.316 319.108L198.963 320.044ZM223.122 328.375C226.364 329.39 229.633 330.374 232.93 331.324L233.207 330.363C229.917 329.415 226.655 328.434 223.421 327.42L223.122 328.375ZM247.745 335.32C251.023 336.144 254.326 336.934 257.655 337.69L257.876 336.715C254.555 335.961 251.259 335.172 247.989 334.351L247.745 335.32ZM272.691 340.832C276.011 341.467 279.357 342.066 282.727 342.63L282.892 341.644C279.529 341.081 276.192 340.483 272.878 339.85L272.691 340.832ZM297.893 344.903C301.258 345.348 304.646 345.758 308.059 346.131L308.167 345.137C304.763 344.764 301.382 344.356 298.024 343.911L297.893 344.903ZM323.301 347.537C326.698 347.793 330.119 348.012 333.561 348.194L333.614 347.195C330.179 347.014 326.766 346.795 323.376 346.54L323.301 347.537ZM348.827 348.748C352.23 348.816 355.655 348.847 359.1 348.84L359.098 347.84C355.66 347.847 352.243 347.816 348.847 347.748L348.827 348.748ZM374.388 348.566C377.779 348.451 381.19 348.3 384.621 348.111L384.566 347.113C381.142 347.301 377.738 347.452 374.354 347.567L374.388 348.566ZM399.903 347.034C401.616 346.887 403.333 346.73 405.055 346.564L404.959 345.569C403.24 345.734 401.527 345.891 399.818 346.038L399.903 347.034ZM405.055 346.564C406.763 346.4 408.464 346.229 410.16 346.052L410.056 345.057C408.363 345.234 406.664 345.405 404.959 345.569L405.055 346.564ZM425.24 344.293C428.564 343.865 431.862 343.412 435.136 342.935L434.992 341.946C431.724 342.421 428.431 342.874 425.112 343.302L425.24 344.293ZM450.199 340.547C453.507 339.979 456.79 339.386 460.047 338.77L459.861 337.787C456.609 338.403 453.333 338.994 450.03 339.561L450.199 340.547ZM474.962 335.745C478.253 335.032 481.519 334.294 484.759 333.533L484.53 332.559C481.295 333.319 478.036 334.056 474.75 334.767L474.962 335.745ZM499.487 329.862C502.749 329.003 505.986 328.118 509.198 327.21L508.925 326.248C505.719 327.155 502.489 328.037 499.232 328.895L499.487 329.862ZM523.726 322.891C526.949 321.885 530.146 320.855 533.32 319.802L533.005 318.853C529.837 319.904 526.645 320.932 523.428 321.936L523.726 322.891ZM547.632 314.84C550.806 313.692 553.956 312.52 557.083 311.326L556.726 310.392C553.605 311.584 550.46 312.753 547.292 313.899L547.632 314.84ZM571.161 305.741C574.28 304.456 577.376 303.15 580.451 301.822L580.055 300.904C576.985 302.229 573.894 303.534 570.78 304.816L571.161 305.741ZM594.281 295.645C597.34 294.232 600.38 292.8 603.399 291.347L602.966 290.446C599.951 291.896 596.917 293.327 593.861 294.737L594.281 295.645ZM616.973 284.622C619.972 283.093 622.954 281.545 625.917 279.979L625.45 279.095C622.491 280.658 619.514 282.204 616.518 283.731L616.973 284.622ZM639.235 272.76C642.177 271.126 645.102 269.475 648.011 267.808L647.514 266.941C644.608 268.605 641.687 270.254 638.75 271.886L639.235 272.76ZM661.086 260.156C663.972 258.431 666.845 256.692 669.705 254.938L669.183 254.086C666.326 255.837 663.456 257.575 660.573 259.298L661.086 260.156ZM682.556 246.919C685.395 245.116 688.223 243.302 691.041 241.476L690.497 240.637C687.682 242.461 684.856 244.274 682.02 246.074L682.556 246.919ZM703.694 233.16C706.493 231.295 709.284 229.421 712.067 227.538L711.506 226.71C708.725 228.592 705.937 230.465 703.139 232.328L703.694 233.16ZM724.56 218.995C727.328 217.084 730.089 215.166 732.845 213.241L732.273 212.421C729.518 214.345 726.758 216.262 723.992 218.172L724.56 218.995ZM745.225 204.538C747.969 202.597 750.71 200.651 753.45 198.701L752.87 197.886C750.131 199.836 747.391 201.781 744.647 203.722L745.225 204.538ZM765.764 189.905C768.495 187.949 771.226 185.991 773.957 184.031L773.374 183.219C770.643 185.178 767.912 187.137 765.181 189.092L765.764 189.905ZM786.256 175.209C788.984 173.253 791.715 171.298 794.449 169.344L793.868 168.53C791.133 170.485 788.402 172.44 785.673 174.396L786.256 175.209ZM806.776 160.564C809.513 158.623 812.255 156.684 815.004 154.749L814.428 153.931C811.678 155.867 808.935 157.806 806.198 159.748L806.776 160.564ZM827.405 146.078C830.161 144.166 832.924 142.258 835.697 140.357L835.132 139.532C832.357 141.435 829.592 143.343 826.835 145.257L827.405 146.078ZM848.214 131.859C850.998 129.99 853.793 128.127 856.599 126.273L856.048 125.438C853.239 127.294 850.443 129.158 847.656 131.029L848.214 131.859ZM869.268 118.013C872.089 116.199 874.923 114.395 877.771 112.601L877.238 111.755C874.388 113.551 871.551 115.356 868.728 117.171L869.268 118.013ZM890.624 104.64C893.488 102.896 896.367 101.163 899.263 99.4433L898.752 98.5835C895.853 100.305 892.971 102.04 890.104 103.785L890.624 104.64ZM912.323 91.8376C915.235 90.1759 918.165 88.5276 921.113 86.8935L920.628 86.0189C917.677 87.655 914.743 89.3053 911.827 90.969L912.323 91.8376ZM934.397 79.6974C937.36 78.1295 940.343 76.5768 943.346 75.04L942.89 74.1498C939.883 75.6887 936.897 77.2435 933.929 78.8135L934.397 79.6974ZM956.861 68.301C959.877 66.8375 962.913 65.3907 965.97 63.9612L965.547 63.0553C962.485 64.4868 959.444 65.9358 956.425 67.4014L956.861 68.301ZM979.72 57.7194C982.785 56.3693 985.873 55.0371 988.983 53.7235L988.594 52.8023C985.479 54.1179 982.387 55.4521 979.317 56.8042L979.72 57.7194ZM1002.96 48.0102C1006.07 46.7809 1009.21 45.5704 1012.37 44.3795L1012.02 43.4438C1008.85 44.6366 1005.71 45.8489 1002.6 47.0802L1002.96 48.0102ZM1026.57 39.2167C1029.72 38.1134 1032.9 37.0297 1036.1 35.9663L1035.78 35.0174C1032.58 36.0824 1029.4 37.1678 1026.24 38.2728L1026.57 39.2167ZM1050.52 31.3661C1053.7 30.3922 1056.91 29.4384 1060.15 28.5052L1059.87 27.5444C1056.63 28.4791 1053.42 29.4344 1050.23 30.4099L1050.52 31.3661ZM1074.78 24.471C1077.99 23.6277 1081.22 22.8045 1084.47 22.0022L1084.23 21.0312C1080.97 21.8348 1077.74 22.6592 1074.52 23.5039L1074.78 24.471ZM1099.3 18.5338C1102.53 17.8187 1105.78 17.1239 1109.05 16.4497L1108.85 15.4703C1105.57 16.1454 1102.32 16.8413 1099.08 17.5575L1099.3 18.5338ZM1123.93 13.5628C1125.61 13.2579 1127.29 12.9584 1128.97 12.6642L1128.8 11.6791C1127.11 11.9737 1125.43 12.2737 1123.76 12.579L1123.93 13.5628ZM1128.97 12.6642C1130.63 12.3753 1132.28 12.0926 1133.93 11.816L1133.77 10.8297C1132.11 11.1067 1130.46 11.3898 1128.8 11.6791L1128.97 12.6642ZM1148.8 9.49018C1152.12 9.00677 1155.43 8.54741 1158.74 8.11165L1158.61 7.1202C1155.3 7.55656 1151.98 8.01655 1148.66 8.50063L1148.8 9.49018ZM1173.68 6.30275C1177.01 5.93349 1180.34 5.58761 1183.67 5.26467L1183.57 4.26935C1180.24 4.59272 1176.91 4.93907 1173.57 5.30883L1173.68 6.30275ZM1198.65 3.96192C1202 3.70445 1205.34 3.46965 1208.68 3.25706L1208.61 2.25908C1205.27 2.47195 1201.92 2.70706 1198.57 2.96487L1198.65 3.96192ZM1223.68 2.44787C1227.04 2.29954 1230.39 2.17312 1233.73 2.06813L1233.7 1.06862C1230.35 1.17374 1227 1.30032 1223.64 1.44885L1223.68 2.44787ZM1248.77 1.73848C1252.12 1.69642 1255.47 1.67541 1258.82 1.67496L1258.82 0.674958C1255.47 0.675408 1252.11 0.696443 1248.75 0.738558L1248.77 1.73848ZM1273.86 1.81067C1277.21 1.87144 1280.56 1.95237 1283.9 2.05295L1283.93 1.0534C1280.59 0.952704 1277.24 0.87168 1273.88 0.810837L1273.86 1.81067ZM1298.94 2.63908C1302.29 2.79908 1305.63 2.97829 1308.96 3.17621L1309.02 2.17797C1305.68 1.97983 1302.34 1.8004 1298.99 1.64022L1298.94 2.63908ZM1323.98 4.19734C1327.32 4.45282 1330.65 4.72654 1333.98 5.01797L1334.06 4.0218C1330.74 3.73004 1327.4 3.45602 1324.06 3.20026L1323.98 4.19734ZM1348.97 6.45842C1352.3 6.80552 1355.62 7.16985 1358.92 7.55086L1359.04 6.55743C1355.73 6.17601 1352.41 5.81129 1349.08 5.46382L1348.97 6.45842ZM1373.89 9.39491C1377.21 9.83064 1380.52 10.2826 1383.81 10.7503L1383.95 9.76021C1380.65 9.29205 1377.34 8.8396 1374.02 8.40341L1373.89 9.39491ZM1398.71 12.9792C1402.03 13.5008 1405.33 14.0378 1408.62 14.5894L1408.79 13.6031C1405.49 13.051 1402.19 12.5135 1398.87 11.9913L1398.71 12.9792ZM1423.43 17.1836C1426.74 17.7882 1430.04 18.4071 1433.32 19.0396L1433.51 18.0577C1430.23 17.4245 1426.93 16.8051 1423.61 16.1998L1423.43 17.1836ZM1448.07 21.9877C1451.36 22.6702 1454.64 23.3657 1457.91 24.0737L1458.12 23.0965C1454.85 22.3878 1451.57 21.6916 1448.27 21.0085L1448.07 21.9877ZM1472.6 27.364C1475.86 28.1192 1479.12 28.8862 1482.35 29.6643L1482.59 28.692C1479.35 27.9133 1476.09 27.1456 1472.82 26.3897L1472.6 27.364ZM1496.99 33.2827C1500.23 34.1075 1503.46 34.9427 1506.67 35.7875L1506.92 34.8204C1503.71 33.9749 1500.48 33.139 1497.23 32.3135L1496.99 33.2827ZM1521.23 39.7161C1524.47 40.6133 1527.7 41.5195 1530.9 42.434L1531.17 41.4724C1527.97 40.5571 1524.74 39.6502 1521.49 38.7522L1521.23 39.7161ZM1545.33 46.6438C1548.56 47.6088 1551.78 48.5813 1554.97 49.5604L1555.26 48.6043C1552.07 47.6245 1548.85 46.6512 1545.61 45.6855L1545.33 46.6438ZM1569.34 54.0589C1572.53 55.0792 1575.71 56.105 1578.85 57.1354L1579.16 56.1851C1576.01 55.1539 1572.84 54.1273 1569.64 53.1063L1569.34 54.0589ZM1593.16 61.9082C1596.36 62.9929 1599.52 64.0812 1602.66 65.1718L1602.99 64.2272C1599.85 63.1358 1596.68 62.0468 1593.48 60.9613L1593.16 61.9082ZM1616.84 70.1805C1620.03 71.3229 1623.18 72.4663 1626.29 73.6094L1626.64 72.6705C1623.52 71.5266 1620.37 70.3825 1617.18 69.2393L1616.84 70.1805ZM1640.42 78.865C1643.58 80.0579 1646.7 81.2486 1649.79 82.4356L1650.15 81.5023C1647.06 80.3146 1643.93 79.1231 1640.77 77.9295L1640.42 78.865ZM1663.81 87.9018C1666.96 89.147 1670.07 90.3857 1673.13 91.6164L1673.51 90.6885C1670.44 89.4571 1667.33 88.2176 1664.17 86.9718L1663.81 87.9018ZM1687.09 97.2844C1690.24 98.5816 1693.35 99.8664 1696.4 101.137L1696.78 100.214C1693.73 98.9427 1690.62 97.6572 1687.47 96.3594L1687.09 97.2844ZM1710.28 106.975C1713.42 108.31 1716.5 109.624 1719.51 110.915L1719.91 109.996C1716.9 108.705 1713.82 107.39 1710.67 106.054L1710.28 106.975ZM1733.35 116.883C1734.87 117.545 1736.38 118.199 1737.86 118.844L1738.26 117.927C1736.78 117.282 1735.27 116.628 1733.74 115.966L1733.35 116.883Z" fill="#118C51"/>
</svg>
